<svg xmlns="http://www.w3.org/2000/svg" width="720" height="456" viewBox="0 0 720 456" font-family="DejaVu Sans, Arial, sans-serif"><rect width="720" height="456" fill="#ffffff"/><path d="M84,400.0 H554" fill="none" stroke="#eef1f5" stroke-width="1" stroke-linejoin="round"/><text x="74" y="404.0" font-size="12" fill="#5b6475" font-weight="normal" text-anchor="end">₹0</text><path d="M84,325.0 H554" fill="none" stroke="#eef1f5" stroke-width="1" stroke-linejoin="round"/><text x="74" y="329.0" font-size="12" fill="#5b6475" font-weight="normal" text-anchor="end">₹2,00,000</text><path d="M84,250.0 H554" fill="none" stroke="#eef1f5" stroke-width="1" stroke-linejoin="round"/><text x="74" y="254.0" font-size="12" fill="#5b6475" font-weight="normal" text-anchor="end">₹4,00,000</text><path d="M84,175.0 H554" fill="none" stroke="#eef1f5" stroke-width="1" stroke-linejoin="round"/><text x="74" y="179.0" font-size="12" fill="#5b6475" font-weight="normal" text-anchor="end">₹6,00,000</text><path d="M84,100.0 H554" fill="none" stroke="#eef1f5" stroke-width="1" stroke-linejoin="round"/><text x="74" y="104.0" font-size="12" fill="#5b6475" font-weight="normal" text-anchor="end">₹8,00,000</text><text x="84.0" y="420" font-size="12" fill="#5b6475" font-weight="normal" text-anchor="middle">Jan</text><text x="126.72727272727272" y="420" font-size="12" fill="#5b6475" font-weight="normal" text-anchor="middle">Feb</text><text x="169.45454545454544" y="420" font-size="12" fill="#5b6475" font-weight="normal" text-anchor="middle">Mar</text><text x="212.1818181818182" y="420" font-size="12" fill="#5b6475" font-weight="normal" text-anchor="middle">Apr</text><text x="254.9090909090909" y="420" font-size="12" fill="#5b6475" font-weight="normal" text-anchor="middle">May</text><text x="297.6363636363636" y="420" font-size="12" fill="#5b6475" font-weight="normal" text-anchor="middle">Jun</text><text x="340.3636363636364" y="420" font-size="12" fill="#5b6475" font-weight="normal" text-anchor="middle">Jul</text><text x="383.09090909090907" y="420" font-size="12" fill="#5b6475" font-weight="normal" text-anchor="middle">Aug</text><text x="425.8181818181818" y="420" font-size="12" fill="#5b6475" font-weight="normal" text-anchor="middle">Sep</text><text x="468.54545454545456" y="420" font-size="12" fill="#5b6475" font-weight="normal" text-anchor="middle">Oct</text><text x="511.27272727272725" y="420" font-size="12" fill="#5b6475" font-weight="normal" text-anchor="middle">Nov</text><text x="554.0" y="420" font-size="12" fill="#5b6475" font-weight="normal" text-anchor="middle">Dec</text><path d="M84.0,324.0 L126.7,314.1 L169.5,302.8 L212.2,290.2 L254.9,275.8 L297.6,259.6 L340.4,241.2 L383.1,220.4 L425.8,197.0 L468.5,170.4 L511.3,140.4 L554.0,106.5" fill="none" stroke="#b23b3b" stroke-width="2.4" stroke-linejoin="round" stroke-dasharray="8 5"/><path d="M84.0,324.0 L126.7,318.5 L169.5,312.5 L212.2,306.1 L254.9,299.3 L297.6,291.9 L340.4,284.0 L383.1,275.6 L425.8,266.5 L468.5,256.7 L511.3,246.3 L554.0,235.1" fill="none" stroke="#2f7d6d" stroke-width="2.6" stroke-linejoin="round" stroke-dasharray="2 3"/><path d="M84.0,324.0 L126.7,304.9 L169.5,295.7 L212.2,321.1 L254.9,276.5 L297.6,329.9 L340.4,312.7 L383.1,276.5 L425.8,190.6 L468.5,144.6 L511.3,162.5 L554.0,235.1" fill="none" stroke="#0f5c8c" stroke-width="3" stroke-linejoin="round"/><circle cx="84.0" cy="324.0" r="4" fill="#0f5c8c"/><circle cx="126.7" cy="304.9" r="4" fill="#0f5c8c"/><circle cx="169.5" cy="295.7" r="4" fill="#0f5c8c"/><circle cx="212.2" cy="321.1" r="4" fill="#0f5c8c"/><circle cx="254.9" cy="276.5" r="4" fill="#0f5c8c"/><circle cx="297.6" cy="329.9" r="4" fill="#0f5c8c"/><circle cx="340.4" cy="312.7" r="4" fill="#0f5c8c"/><circle cx="383.1" cy="276.5" r="4" fill="#0f5c8c"/><circle cx="425.8" cy="190.6" r="4" fill="#0f5c8c"/><circle cx="468.5" cy="144.6" r="4" fill="#0f5c8c"/><circle cx="511.3" cy="162.5" r="4" fill="#0f5c8c"/><circle cx="554.0" cy="235.1" r="4" fill="#0f5c8c"/><text x="564.0" y="106.52050819375802" font-size="12.5" fill="#b23b3b" font-weight="bold" text-anchor="start">13.1% average path</text><text x="564.0" y="123.52050819375802" font-size="12.5" fill="#b23b3b" font-weight="normal" text-anchor="start">ends at ₹7,82,621</text><text x="564.0" y="227.06599999999997" font-size="12.5" fill="#1d2330" font-weight="bold" text-anchor="start">Actual December,</text><text x="564.0" y="244.06599999999997" font-size="12.5" fill="#2f7d6d" font-weight="bold" text-anchor="start">where the 7.3%</text><text x="564.0" y="261.066" font-size="12.5" fill="#2f7d6d" font-weight="bold" text-anchor="start">compound path ends:</text><text x="564.0" y="278.066" font-size="12.5" fill="#1d2330" font-weight="bold" text-anchor="start">₹4,39,824</text><text x="86.0" y="346.01" font-size="12.5" fill="#1d2330" font-weight="bold" text-anchor="start">₹2,02,640</text><text x="468.54545454545456" y="132.59837499999998" font-size="12.5" fill="#0f5c8c" font-weight="bold" text-anchor="middle">actual revenue</text><path d="M20,20 h34" fill="none" stroke="#0f5c8c" stroke-width="3" stroke-linejoin="round"/><text x="62" y="24" font-size="12.5" fill="#1d2330" font-weight="normal" text-anchor="start">Actual monthly revenue, 2025 (solid line, dots)</text><path d="M20,41 h34" fill="none" stroke="#2f7d6d" stroke-width="3" stroke-linejoin="round" stroke-dasharray="2 3"/><text x="62" y="45" font-size="12.5" fill="#1d2330" font-weight="normal" text-anchor="start">Steady 7.3% a month, the compound rate (short dashes): ends exactly at December</text><path d="M20,62 h34" fill="none" stroke="#b23b3b" stroke-width="3" stroke-linejoin="round" stroke-dasharray="8 5"/><text x="62" y="66" font-size="12.5" fill="#1d2330" font-weight="normal" text-anchor="start">13.1% a month, the average of the monthly % changes (long dashes): overshoots</text><text x="20" y="444" font-size="12" fill="#5b6475" font-weight="normal" text-anchor="start" font-style="italic">Source: One-year database (2025).</text></svg>