<svg xmlns="http://www.w3.org/2000/svg" width="1040" height="520" viewBox="0 0 1040 520" font-family="DejaVu Sans, Arial, sans-serif"><rect width="1040" height="520" fill="#ffffff"/><path d="M140.0,460.0 L140.0,60.0" fill="none" stroke="#eef1f5" stroke-width="1" stroke-linejoin="round"/><text x="140.0" y="480" font-size="11.5" fill="#5b6475" font-weight="normal" text-anchor="middle">-3</text><path d="M230.7,460.0 L230.7,60.0" fill="none" stroke="#eef1f5" stroke-width="1" stroke-linejoin="round"/><text x="230.66666666666669" y="480" font-size="11.5" fill="#5b6475" font-weight="normal" text-anchor="middle">-2</text><path d="M321.3,460.0 L321.3,60.0" fill="none" stroke="#eef1f5" stroke-width="1" stroke-linejoin="round"/><text x="321.33333333333337" y="480" font-size="11.5" fill="#5b6475" font-weight="normal" text-anchor="middle">-1</text><path d="M412.0,460.0 L412.0,60.0" fill="none" stroke="#eef1f5" stroke-width="1" stroke-linejoin="round"/><text x="412.0" y="480" font-size="11.5" fill="#5b6475" font-weight="normal" text-anchor="middle">0</text><path d="M502.7,460.0 L502.7,60.0" fill="none" stroke="#eef1f5" stroke-width="1" stroke-linejoin="round"/><text x="502.6666666666667" y="480" font-size="11.5" fill="#5b6475" font-weight="normal" text-anchor="middle">1</text><path d="M593.3,460.0 L593.3,60.0" fill="none" stroke="#eef1f5" stroke-width="1" stroke-linejoin="round"/><text x="593.3333333333333" y="480" font-size="11.5" fill="#5b6475" font-weight="normal" text-anchor="middle">2</text><path d="M684.0,460.0 L684.0,60.0" fill="none" stroke="#eef1f5" stroke-width="1" stroke-linejoin="round"/><text x="684.0" y="480" font-size="11.5" fill="#5b6475" font-weight="normal" text-anchor="middle">3</text><path d="M774.7,460.0 L774.7,60.0" fill="none" stroke="#eef1f5" stroke-width="1" stroke-linejoin="round"/><text x="774.6666666666666" y="480" font-size="11.5" fill="#5b6475" font-weight="normal" text-anchor="middle">4</text><path d="M140.0,460.0 L820.0,460.0" fill="none" stroke="#eef1f5" stroke-width="1" stroke-linejoin="round"/><text x="130" y="464.0" font-size="11.5" fill="#5b6475" font-weight="normal" text-anchor="end">-3</text><path d="M140.0,398.5 L820.0,398.5" fill="none" stroke="#eef1f5" stroke-width="1" stroke-linejoin="round"/><text x="130" y="402.46153846153845" font-size="11.5" fill="#5b6475" font-weight="normal" text-anchor="end">-2</text><path d="M140.0,336.9 L820.0,336.9" fill="none" stroke="#eef1f5" stroke-width="1" stroke-linejoin="round"/><text x="130" y="340.9230769230769" font-size="11.5" fill="#5b6475" font-weight="normal" text-anchor="end">-1</text><path d="M140.0,275.4 L820.0,275.4" fill="none" stroke="#eef1f5" stroke-width="1" stroke-linejoin="round"/><text x="130" y="279.38461538461536" font-size="11.5" fill="#5b6475" font-weight="normal" text-anchor="end">0</text><path d="M140.0,213.8 L820.0,213.8" fill="none" stroke="#eef1f5" stroke-width="1" stroke-linejoin="round"/><text x="130" y="217.84615384615384" font-size="11.5" fill="#5b6475" font-weight="normal" text-anchor="end">1</text><path d="M140.0,152.3 L820.0,152.3" fill="none" stroke="#eef1f5" stroke-width="1" stroke-linejoin="round"/><text x="130" y="156.30769230769226" font-size="11.5" fill="#5b6475" font-weight="normal" text-anchor="end">2</text><path d="M140.0,90.8 L820.0,90.8" fill="none" stroke="#eef1f5" stroke-width="1" stroke-linejoin="round"/><text x="130" y="94.76923076923077" font-size="11.5" fill="#5b6475" font-weight="normal" text-anchor="end">3</text><path d="M412.0,460.0 L412.0,60.0" fill="none" stroke="#c9d3df" stroke-width="1.2" stroke-linejoin="round"/><path d="M140.0,275.4 L820.0,275.4" fill="none" stroke="#c9d3df" stroke-width="1.2" stroke-linejoin="round"/><text x="480.0" y="504" font-size="12.5" fill="#1d2330" font-weight="normal" text-anchor="middle">PC1 (53.5%): kitchenware buyers ← → wholesale crate buyers</text><text x="92" y="260.0" font-size="12.5" fill="#1d2330" text-anchor="middle" transform="rotate(-90 92 260.0)">PC2 (20.5%): many orders ← → few storage-only orders</text><circle cx="549.3" cy="373.1" r="7" fill="#0f5c8c" stroke="#fff" stroke-width="1.5"/><text x="559.283986971516" y="377.1042461889748" font-size="11.5" fill="#1d2330" font-weight="normal" text-anchor="start">Sharma Hardware</text><circle cx="352.5" cy="291.2" r="7" fill="#0f5c8c" stroke="#fff" stroke-width="1.5"/><circle cx="400.6" cy="416.6" r="7" fill="#7a4fa0" stroke="#fff" stroke-width="1.5"/><text x="410.55275071030127" y="420.60233279110946" font-size="11.5" fill="#1d2330" font-weight="normal" text-anchor="start">Green Leaf Hotels</text><circle cx="687.5" cy="299.0" r="7" fill="#c0662b" stroke="#fff" stroke-width="1.5"/><circle cx="477.6" cy="332.9" r="7" fill="#0f5c8c" stroke="#fff" stroke-width="1.5"/><circle cx="195.0" cy="290.7" r="7" fill="#7a4fa0" stroke="#fff" stroke-width="1.5"/><circle cx="662.2" cy="282.9" r="7" fill="#c0662b" stroke="#fff" stroke-width="1.5"/><circle cx="232.2" cy="257.0" r="7" fill="#7a4fa0" stroke="#fff" stroke-width="1.5"/><circle cx="251.1" cy="274.8" r="7" fill="#7a4fa0" stroke="#fff" stroke-width="1.5"/><circle cx="443.8" cy="101.5" r="7" fill="#0f5c8c" stroke="#fff" stroke-width="1.5"/><text x="453.77562209938475" y="105.48148250208641" font-size="11.5" fill="#1d2330" font-weight="normal" text-anchor="start">City Needs Store</text><circle cx="752.4" cy="293.9" r="7" fill="#c0662b" stroke="#fff" stroke-width="1.5"/><text x="752.3772241468961" y="279.8672586984104" font-size="11.5" fill="#1d2330" font-weight="normal" text-anchor="middle">Harbour Traders</text><circle cx="412.0" cy="340.6" r="7" fill="#7a4fa0" stroke="#fff" stroke-width="1.5"/><circle cx="273.1" cy="228.4" r="7" fill="#0f5c8c" stroke="#fff" stroke-width="1.5"/><circle cx="672.6" cy="306.5" r="7" fill="#c0662b" stroke="#fff" stroke-width="1.5"/><circle cx="302.9" cy="348.8" r="7" fill="#7a4fa0" stroke="#fff" stroke-width="1.5"/><circle cx="291.2" cy="200.3" r="7" fill="#7a4fa0" stroke="#fff" stroke-width="1.5"/><text x="301.22698629656657" y="204.2501852487788" font-size="11.5" fill="#1d2330" font-weight="normal" text-anchor="start">Royal Banquets</text><circle cx="407.6" cy="246.2" r="7" fill="#0f5c8c" stroke="#fff" stroke-width="1.5"/><circle cx="649.5" cy="230.0" r="7" fill="#c0662b" stroke="#fff" stroke-width="1.5"/><text x="659.4791985735549" y="222.02927160836614" font-size="11.5" fill="#1d2330" font-weight="normal" text-anchor="start">Western Logistics</text><circle cx="163.6" cy="314.3" r="7" fill="#7a4fa0" stroke="#fff" stroke-width="1.5"/><text x="171.56371650399848" y="334.3225274081017" font-size="11.5" fill="#1d2330" font-weight="normal" text-anchor="start">Tasty Tiffins</text><circle cx="315.8" cy="263.9" r="7" fill="#0f5c8c" stroke="#fff" stroke-width="1.5"/><circle cx="201.3" cy="256.0" r="7" fill="#0f5c8c" stroke="#fff" stroke-width="1.5"/><circle cx="260.5" cy="299.2" r="7" fill="#7a4fa0" stroke="#fff" stroke-width="1.5"/><circle cx="521.8" cy="85.9" r="7" fill="#c0662b" stroke="#fff" stroke-width="1.5"/><text x="531.8030486976663" y="89.91876573675671" font-size="11.5" fill="#1d2330" font-weight="normal" text-anchor="start">Prime Wholesale</text><circle cx="860.0" cy="110.0" r="7" fill="#c0662b" stroke="#fff" stroke-width="1.5"/><text x="876" y="115" font-size="13" fill="#1d2330" font-weight="normal" text-anchor="start">Wholesale</text><circle cx="860.0" cy="138.0" r="7" fill="#0f5c8c" stroke="#fff" stroke-width="1.5"/><text x="876" y="143" font-size="13" fill="#1d2330" font-weight="normal" text-anchor="start">Retail</text><circle cx="860.0" cy="166.0" r="7" fill="#7a4fa0" stroke="#fff" stroke-width="1.5"/><text x="876" y="171" font-size="13" fill="#1d2330" font-weight="normal" text-anchor="start">Hospitality</text></svg>